<svg id="Layer_1" data-name="Layer 1" xmlns="http://www.w3.org/2000/svg" xmlns:xlink="http://www.w3.org/1999/xlink" viewBox="0 0 134.84 87.02"><defs><style>.cls-1,.cls-10,.cls-11,.cls-12,.cls-13,.cls-14,.cls-15,.cls-16,.cls-2,.cls-3,.cls-4,.cls-5,.cls-6,.cls-7,.cls-8,.cls-9{fill:none;stroke-miterlimit:10;stroke-width:4px;}.cls-1{stroke:#47e0ee;}.cls-2{stroke:url(#Blue_Sky);}.cls-3{stroke:url(#Blue_Sky-2);}.cls-4{stroke:url(#Blue_Sky-3);}.cls-5{stroke:url(#Blue_Sky-4);}.cls-6{stroke:url(#Blue_Sky-5);}.cls-7{stroke:url(#Blue_Sky-6);}.cls-8{stroke:url(#Blue_Sky-7);}.cls-9{stroke:url(#Blue_Sky-8);}.cls-10{stroke:url(#Blue_Sky-9);}.cls-11{stroke:url(#Blue_Sky-10);}.cls-12{stroke:url(#Blue_Sky-11);}.cls-13{stroke:url(#Blue_Sky-12);}.cls-14{stroke:url(#Blue_Sky-13);}.cls-15{stroke:url(#Blue_Sky-14);}.cls-16{stroke:url(#Blue_Sky-15);}</style><linearGradient id="Blue_Sky" x1="105.85" y1="92.32" x2="105.85" y2="92.32" gradientUnits="userSpaceOnUse"><stop offset="0" stop-color="#3ddeed"/><stop offset="1" stop-color="#3ddeed" stop-opacity="0"/></linearGradient><linearGradient id="Blue_Sky-2" x1="135.62" y1="44.1" x2="135.62" y2="44.1" xlink:href="#Blue_Sky"/><linearGradient id="Blue_Sky-3" x1="77.75" y1="44.82" x2="77.75" y2="44.82" xlink:href="#Blue_Sky"/><linearGradient id="Blue_Sky-4" x1="77.76" y1="57.6" x2="138.43" y2="57.6" xlink:href="#Blue_Sky"/><linearGradient id="Blue_Sky-5" x1="77.76" y1="37.6" x2="138.43" y2="37.6" xlink:href="#Blue_Sky"/><linearGradient id="Blue_Sky-6" x1="77.76" y1="75.6" x2="138.43" y2="75.6" xlink:href="#Blue_Sky"/><linearGradient id="Blue_Sky-7" x1="77.76" y1="92.6" x2="138.43" y2="92.6" xlink:href="#Blue_Sky"/><linearGradient id="Blue_Sky-8" x1="38.85" y1="91.32" x2="38.85" y2="91.32" gradientTransform="matrix(-1, 0, 0, 1, 77.69, 0)" xlink:href="#Blue_Sky"/><linearGradient id="Blue_Sky-9" x1="9.76" y1="92.6" x2="70.43" y2="92.6" gradientTransform="matrix(-1, 0, 0, 1, 78.19, 0)" xlink:href="#Blue_Sky"/><linearGradient id="Blue_Sky-10" x1="39.85" y1="72.32" x2="39.85" y2="72.32" gradientTransform="matrix(-1, 0, 0, 1, 77.69, 0)" xlink:href="#Blue_Sky"/><linearGradient id="Blue_Sky-11" x1="9.76" y1="74.6" x2="70.43" y2="74.6" gradientTransform="matrix(-1, 0, 0, 1, 78.19, 0)" xlink:href="#Blue_Sky"/><linearGradient id="Blue_Sky-12" x1="39.85" y1="52.32" x2="39.85" y2="52.32" gradientTransform="matrix(-1, 0, 0, 1, 77.69, 0)" xlink:href="#Blue_Sky"/><linearGradient id="Blue_Sky-13" x1="9.76" y1="57.6" x2="70.43" y2="57.6" gradientTransform="matrix(-1, 0, 0, 1, 78.19, 0)" xlink:href="#Blue_Sky"/><linearGradient id="Blue_Sky-14" x1="41.85" y1="32.32" x2="41.85" y2="32.32" gradientTransform="matrix(-1, 0, 0, 1, 77.69, 0)" xlink:href="#Blue_Sky"/><linearGradient id="Blue_Sky-15" x1="10.76" y1="38.6" x2="71.43" y2="38.6" gradientTransform="matrix(-1, 0, 0, 1, 78.19, 0)" xlink:href="#Blue_Sky"/></defs><title>Logo - a</title><path class="cls-1" d="M8.11,32c-.08,1.23-.2,3.11-.35,5.41C4,97.89,5.68,102.36,8.91,104.74c9.05,6.64,21.82-9,44.31-2,7.5,2.35,10.23,5.39,13.92,3.68,6.82-3.15,6.27-17.61,5.06-42.34-.89-18.45-1.41-27.75-4.83-31.88C57.81,20.71,33.86,21.72,8.11,32Z" transform="translate(-3.59 -21.94)"/><path class="cls-2" d="M105.85,92.32" transform="translate(-3.59 -21.94)"/><path class="cls-3" d="M135.62,44.1" transform="translate(-3.59 -21.94)"/><path class="cls-4" d="M77.75,44.82" transform="translate(-3.59 -21.94)"/><path class="cls-5" d="M79.75,62.82c.8-9.69,16.12-11.61,24.15-9.4,12.31,3.39,28.08,11.21,33.72,8.68" transform="translate(-3.59 -21.94)"/><path class="cls-6" d="M79.75,42.82c.8-9.69,16.12-11.61,24.15-9.4,12.31,3.39,28.08,11.21,33.72,8.68" transform="translate(-3.59 -21.94)"/><path class="cls-7" d="M79.75,80.82c.8-9.69,16.12-11.61,24.15-9.4,12.31,3.39,28.08,11.21,33.72,8.68" transform="translate(-3.59 -21.94)"/><path class="cls-8" d="M79.75,97.82c.8-9.69,16.12-11.61,24.15-9.4,12.31,3.39,28.08,11.21,33.72,8.68" transform="translate(-3.59 -21.94)"/><path class="cls-9" d="M38.85,91.32" transform="translate(-3.59 -21.94)"/><path class="cls-10" d="M66.44,97.82c-.8-9.69-16.12-11.61-24.15-9.4C30,91.81,14.21,99.63,8.58,97.1" transform="translate(-3.59 -21.94)"/><path class="cls-11" d="M37.85,72.32" transform="translate(-3.59 -21.94)"/><path class="cls-12" d="M66.44,79.82c-.8-9.69-16.12-11.61-24.15-9.4C30,73.81,14.21,81.63,8.58,79.1" transform="translate(-3.59 -21.94)"/><path class="cls-13" d="M37.85,52.32" transform="translate(-3.59 -21.94)"/><path class="cls-14" d="M66.44,62.82c-.8-9.69-16.12-11.61-24.15-9.4C30,56.81,14.21,64.63,8.58,62.1" transform="translate(-3.59 -21.94)"/><path class="cls-15" d="M35.85,32.32" transform="translate(-3.59 -21.94)"/><path class="cls-16" d="M65.44,43.82c-.8-9.69-16.12-11.61-24.15-9.4C29,37.81,13.21,45.63,7.58,43.1" transform="translate(-3.59 -21.94)"/></svg>